:SAMPLES-PER-SECOND 30
:FRAME-RANGE 1-2643
:FULLY-SPECIFIED
:DEGREES
166
root  -63.0347 37.391 -30.9428 -176.725 -11.2498 172.142
RightUpLeg  -2.11751 -0.165357 8.7877
RightLeg  40.7588 0.619194 0.2869
RightFoot  -15.905 -0.388791 -7.0523
RightToes  5.38607e-012 1.2921e-014 -6.02303e-014
Spine  6.10828 5.08117 4.88164
Spine1  4.86444 8.02897 -12.3161
HEad  11.251 -6.49695 -0.852324
LeftShoulder1  0.509913 1.4386 -21.1659
LeftArm  -2.52863 1.0465 -24.7482
LeftForeArm  24.8829 -9.7275 -10.0246
LeftHand  -0.0649381 3.57359 3.06728
RightShoulder  2.62794 7.04243 19.0307
RightArm  -10.3668 29.0416 82.2485
RightForeArm  81.7259 -5.07931 5.0858
RightHand  0.79339 -9.54758 -22.2717
LeftUpLeg  -35.3499 -6.60694 -0.211641
LeftLeg  19.9515 3.04135 1.55162
LeftFoot  -5.57296 0.806683 -15.2759
LeftToes  -4.79707e-012 -5.93756e-011 -7.55542e-012
167
root  -62.8856 37.4804 -33.9171 -176.142 -10.9105 172.938
RightUpLeg  0.238876 -4.64605 7.59858
RightLeg  42.1798 6.15258 5.65758
RightFoot  -11.7646 -0.066409 3.62592
RightToes  5.38607e-012 1.2921e-014 -6.02303e-014
Spine  4.12734 6.06841 4.06603
Spine1  6.37502 9.04449 -12.21
HEad  13.338 -5.8512 -1.10637
LeftShoulder1  0.217363 2.52955 -21.9376
LeftArm  2.59295 3.236 -23.6713
LeftForeArm  20.3714 -12.7934 -9.2766
LeftHand  -0.0685057 3.32608 2.96616
RightShoulder  2.65996 7.09208 19.2331
RightArm  -12.1652 26.3608 81.6449
RightForeArm  83.4105 -4.95763 4.7948
RightHand  0.799013 -9.65127 -21.9089
LeftUpLeg  -35.2535 -6.52567 -2.63817
LeftLeg  13.2767 3.65616 1.51355
LeftFoot  -6.85444 0.688521 -16.4359
LeftToes  -4.79707e-012 -5.93756e-011 -7.55542e-012
168
root  -62.8007 36.8349 -36.6663 -176.329 -10.8537 174.526
RightUpLeg  0.304103 -7.26601 7.17391
RightLeg  49.5556 8.24964 9.912
RightFoot  -11.3689 -0.073121 19.3573
RightToes  5.38607e-012 1.2921e-014 -6.02303e-014
Spine  4.38 6.74121 4.4282
Spine1  6.55027 9.58407 -12.2145
HEad  14.1096 -4.22252 -1.64486
LeftShoulder1  -0.00967257 3.33788 -22.1072
LeftArm  6.91593 5.24191 -24.1646
LeftForeArm  16.8297 -14.7556 -8.60442
LeftHand  -0.0709468 2.9702 2.5787
RightShoulder  2.63355 6.76374 19.8471
RightArm  -15.3846 23.2143 79.6314
RightForeArm  81.7091 -4.90151 4.00329
RightHand  0.874928 -9.80938 -23.0176
LeftUpLeg  -37.2533 -7.10319 -3.87993
LeftLeg  15.7306 2.68484 1.22152
LeftFoot  -8.89992 0.408735 -16.5926
LeftToes  -4.79707e-012 -5.93756e-011 -7.55542e-012
169
root  -62.7596 35.9075 -39.2575 -177.187 -9.93871 176.264
RightUpLeg  -1.45778 -8.87419 6.39667
RightLeg  60.7449 6.34223 11.6204
RightFoot  -13.9904 0.303125 17.1249
RightToes  5.38607e-012 1.2921e-014 -6.02303e-014
Spine  5.15252 7.28105 4.9296
Spine1  7.79942 10.0695 -11.465
HEad  12.3995 -0.401469 -2.94679
LeftShoulder1  -0.137838 3.79269 -22.0302
LeftArm  8.75224 7.15644 -26.2098
LeftForeArm  16.0041 -15.2113 -8.47416
LeftHand  -0.0710708 2.8753 2.50359
RightShoulder  2.62014 6.63585 20.063
RightArm  -18.3683 21.1671 76.9324
RightForeArm  80.0484 -4.81482 3.05003
RightHand  0.997785 -9.88284 -25.5752
LeftUpLeg  -38.9251 -7.62183 -4.35442
LeftLeg  22.8173 -0.734838 -0.00321594
LeftFoot  -8.79855 0.36998 -14.244
LeftToes  -4.79707e-012 -5.93756e-011 -7.55542e-012
170
root  -62.8202 34.7337 -41.7292 -178.684 -8.55376 177.473
RightUpLeg  -4.79835 -10.3428 3.85723
RightLeg  73.0937 2.27493 7.49804
RightFoot  -15.0675 0.389664 15.059
RightToes  5.38607e-012 1.2921e-014 -6.02303e-014
Spine  6.73234 6.93786 5.29164
Spine1  7.63193 9.53209 -10.7793
HEad  10.6195 6.03062 -5.06922
LeftShoulder1  -0.00541165 3.32289 -21.9594
LeftArm  10.9668 10.2833 -28.5224
LeftForeArm  15.5821 -15.234 -8.66026
LeftHand  -0.0704772 3.07121 2.79739
RightShoulder  2.64136 6.43183 20.8887
RightArm  -21.5594 20.5729 73.9542
RightForeArm  81.2027 -4.49535 1.44532
RightHand  1.08423 -9.99961 -26.955
LeftUpLeg  -43 -12.2193 -1.49514
LeftLeg  35.8857 -1.62482 -0.892888
LeftFoot  2.49976 0.969841 -8.1069
LeftToes  -4.79707e-012 -5.93756e-011 -7.55542e-012
171
root  -62.776 33.8359 -43.9616 179.404 -9.1882 176.271
RightUpLeg  -10.2485 -10.8173 -0.735607
RightLeg  84.7044 0.347865 1.10655
RightFoot  -16.3492 0.336627 10.216
RightToes  5.38607e-012 1.2921e-014 -6.02303e-014
Spine  9.53711 5.76732 2.13099
Spine1  7.43619 7.65387 -8.49448
HEad  10.7677 12.24 -6.5667
LeftShoulder1  0.21191 2.58309 -23.3424
LeftArm  7.97726 8.24402 -31.1372
LeftForeArm  21.2854 -9.44097 -11.7914
LeftHand  -0.0709073 3.44813 3.27378
RightShoulder  2.62157 6.16287 21.4873
RightArm  -25.4638 20.129 70.0316
RightForeArm  81.1691 -4.13781 -0.66272
RightHand  1.15923 -10.2442 -27.3236
LeftUpLeg  -43.4251 -14.5436 -3.54926
LeftLeg  47.836 -0.336525 0.0427583
LeftFoot  -3.1617 0.0598458 -0.57066
LeftToes  -4.79707e-012 -5.93756e-011 -7.55542e-012
172
root  -62.6775 33.2152 -46.0985 178.197 -8.58805 176.143
RightUpLeg  -18.8321 -6.8509 -3.36366
RightLeg  92.6145 0.44805 -1.81
RightFoot  -17.7676 0.256914 6.71752
RightToes  5.38607e-012 1.2921e-014 -6.02303e-014
Spine  11.0288 5.17136 1.2226
Spine1  8.14811 7.00879 -8.29984
HEad  13.5372 17.8865 -6.74053
LeftShoulder1  0.387262 1.96989 -22.957
LeftArm  2.51374 3.25142 -37.6393
LeftForeArm  30.7562 -0.543724 -13.6904
LeftHand  -0.0392651 4.75211 2.96163
RightShoulder  2.53645 5.72486 21.9095
RightArm  -28.5605 19.2869 65.2185
RightForeArm  80.3932 -3.91929 -2.12517
RightHand  1.23059 -10.5561 -27.2473
LeftUpLeg  -42.6947 -15.8196 -3.83126
LeftLeg  56.4403 0.652852 1.60968
LeftFoot  -10.6219 0.0711836 -1.18417
LeftToes  -4.79707e-012 -5.93756e-011 -7.55542e-012
173
root  -62.477 32.9365 -48.2462 177.198 -8.13285 176.075
RightUpLeg  -27.476 -1.65323 -6.79628
RightLeg  94.7763 0.305131 0.0215161
RightFoot  -19.5574 0.25367 5.37525
RightToes  5.38607e-012 1.2921e-014 -6.02303e-014
Spine  11.9078 4.16294 -0.476278
Spine1  7.98132 5.74687 -7.97295
HEad  17.1662 24.4885 -5.59935
LeftShoulder1  0.739381 0.73164 -22.6678
LeftArm  2.51125 -0.564798 -43.4996
LeftForeArm  36.7405 3.49304 -14.0979
LeftHand  -0.0222782 5.83023 1.92701
RightShoulder  2.42951 5.217 22.3489
RightArm  -29.9506 17.9977 60.5136
RightForeArm  80.8808 -3.84821 -2.41398
RightHand  1.21582 -10.8009 -25.8105
LeftUpLeg  -40.0389 -16.186 -4.29568
LeftLeg  61.7721 0.963911 2.61251
LeftFoot  -16.7802 0.0118568 -1.86837
LeftToes  -4.79707e-012 -5.93756e-011 -7.55542e-012
174
root  -62.177 32.9512 -50.452 176.357 -8.75907 177.037
RightUpLeg  -34.5367 1.91677 -9.89109
RightLeg  90.7189 0.162857 2.78944
RightFoot  -20.8215 0.365703 6.10914
RightToes  5.38607e-012 1.2921e-014 -6.02303e-014
Spine  12.6905 2.62954 -1.94637
Spine1  6.6671 3.71981 -6.72907
HEad  20.6719 31.8716 -4.03843
LeftShoulder1  0.942832 0.0210435 -22.6491
LeftArm  6.13547 -4.21693 -48.3702
LeftForeArm  40.4715 3.52925 -14.7358
LeftHand  -0.0143604 6.15988 2.45719
RightShoulder  2.26842 4.62861 22.428
RightArm  -29.8055 15.4476 56.2405
RightForeArm  80.1322 -4.04539 -1.46026
RightHand  1.13235 -10.7921 -24.2069
LeftUpLeg  -36.1608 -16.5339 -3.63211
LeftLeg  64.7189 0.721202 2.41558
LeftFoot  -22.2024 -0.0684611 -2.12135
LeftToes  -4.79707e-012 -5.93756e-011 -7.55542e-012
175
root  -61.8375 33.2806 -52.5912 175.749 -9.90563 178.707
RightUpLeg  -39.1667 4.13908 -12.0303
RightLeg  80.8119 0.481051 1.64904
RightFoot  -21.0243 0.390039 6.28381
RightToes  5.38607e-012 1.2921e-014 -6.02303e-014
Spine  13.6009 1.00174 -2.04065
Spine1  5.00005 1.93578 -5.81448
HEad  23.3733 39.4119 -2.12384
LeftShoulder1  1.02634 -0.352305 -21.965
LeftArm  10.0737 -7.8279 -53.144
LeftForeArm  41.593 1.13861 -14.991
LeftHand  0.00554379 6.22851 4.68653
RightShoulder  2.05943 3.76754 22.9697
RightArm  -28.1609 11.8948 51.8109
RightForeArm  77.2645 -4.50555 0.514554
RightHand  0.932394 -9.97641 -23.5751
LeftUpLeg  -31.6901 -16.9445 -1.86816
LeftLeg  65.3586 0.201886 1.24219
LeftFoot  -26.1113 -0.188032 -2.66097
LeftToes  -4.79707e-012 -5.93756e-011 -7.55542e-012
176
root  -61.4557 33.7383 -54.6437 175.527 -11.2691 -179.338
RightUpLeg  -41.1455 5.5793 -13.3558
RightLeg  66.5487 -1.09527 -3.43661
RightFoot  -20.5303 0.38839 6.56062
RightToes  5.38607e-012 1.2921e-014 -6.02303e-014
Spine  13.8264 -0.346019 -1.25351
Spine1  4.21475 0.66979 -5.01186
HEad  24.9389 46.156 -0.416252
LeftShoulder1  1.17787 -1.11371 -20.4701
LeftArm  12.0432 -10.8682 -57.9333
LeftForeArm  39.7609 -2.72207 -14.3514
LeftHand  0.00195086 5.86929 6.43068
RightShoulder  1.90731 3.1372 23.4713
RightArm  -26.4208 7.304 47.4614
RightForeArm  74.4125 -4.92052 2.26931
RightHand  0.748747 -9.37217 -21.9848
LeftUpLeg  -27.3806 -17.0655 0.620649
LeftLeg  64.4839 -0.47584 -0.366213
LeftFoot  -28.9575 -0.250692 -2.74223
LeftToes  -4.79707e-012 -5.93756e-011 -7.55542e-012
